# xmcd
#
# Track frame offsets: 
#        150
#        12380
#        29362
#        50047
#        67374
#        83636
#        110281
#        130725
#        148510
#        170085
#        182583
#        200123
#        220550
#        235698
#
# Disc length: 3367 seconds
#
# Revision: 6
# Processed by: cddbd v1.5.2PL0 Copyright (c) Steve Scherf et al.
# Submitted via: ExactAudioCopyFreeDBPlugin 1.0
#
DISCID=c90d250e
DTITLE=Truth Hurts - Truthfully Speaking
DYEAR=2002
DGENRE=R&B
TTITLE0=Push Play
TTITLE1=Addictive Feat. Rakim
TTITLE2=Next To Me
TTITLE3=Jimmy
TTITLE4=Grown
TTITLE5=This Feeling
TTITLE6=Tired
TTITLE7=I'm Not Really Lookin' Feat. DJ Quik
TTITLE8=Bullshit Feat. Big Rube
TTITLE9=Queen Of The Ghetto
TTITLE10=The Truth
TTITLE11=Real
TTITLE12=Hollywood feat. Dr. Dre
TTITLE13=Do Me
EXTD=YEAR: 2002
EXTT0=
EXTT1=
EXTT2=
EXTT3=
EXTT4=
EXTT5=
EXTT6=
EXTT7=
EXTT8=
EXTT9=
EXTT10=
EXTT11=
EXTT12=
EXTT13=
PLAYORDER=
